<svg version="1" xmlns="http://www.w3.org/2000/svg" width="256" height="256" viewBox="0 0 2560 2560">
  <path d="M1060 2480v-60h120v120h-120v-60zm320 0v-60h120v120h-120v-60zm-320-160v-60h120v120h-120v-60zm320 0v-60h120v120h-120v-60zM260 1040v-60h120v120H260v-60zm1920 0v-60h120v120h-120v-60zm-960-320v-60h120v120h-120v-60zm0-320v-60h120v120h-120v-60zm0-160v-60h120v120h-120v-60zm0-160V20h120v120h-120V80z" fill="#dedede"/>
  <path d="M900 2160v-60h120v120H900v-60zm640 0v-60h120v120h-120v-60zm-800-160v-60h120v120H740v-60zm160 0v-60h120v120H900v-60zm640 0v-60h120v120h-120v-60zm160 0v-60h120v120h-120v-60zM580 1840v-60h120v120H580v-60zm160 0v-60h120v120H740v-60zm160 0v-60h120v120H900v-60zm320 0v-60h120v120h-120v-60zm320 0v-60h120v120h-120v-60zm160 0v-60h120v120h-120v-60zm160 0v-60h120v120h-120v-60zM580 1680v-60h120v120H580v-60zm160 0v-60h120v120H740v-60zm480 0v-60h120v120h-120v-60zm480 0v-60h120v120h-120v-60zm160 0v-60h120v120h-120v-60zM580 1520v-60h120v120H580v-60zm640 0v-60h120v120h-120v-60zm640 0v-60h120v120h-120v-60zm-640-160v-60h120v120h-120v-60zm0-320v-60h120v120h-120v-60zm-160-160v-60h120v120h-120v-60zm160 0v-60h120v120h-120v-60zm160 0v-60h120v120h-120v-60zM900 720v-60h120v120H900v-60zm160 0v-60h120v120h-120v-60zm320 0v-60h120v120h-120v-60zm160 0v-60h120v120h-120v-60zm-480-160v-60h120v120h-120v-60zm160 0v-60h120v120h-120v-60zm160 0v-60h120v120h-120v-60z" fill="red"/>
  <path d="M1220 2480v-60h120v120h-120v-60zm0-160v-60h120v120h-120v-60zm-960-160v-60h120v120H260v-60zm160 0v-60h120v120H420v-60zm640 0v-60h120v120h-120v-60zm160 0v-60h120v120h-120v-60zm160 0v-60h120v120h-120v-60zm640 0v-60h120v120h-120v-60zm160 0v-60h120v120h-120v-60zM260 2000v-60h120v120H260v-60zm160 0v-60h120v120H420v-60zm640 0v-60h120v120h-120v-60zm160 0v-60h120v120h-120v-60zm160 0v-60h120v120h-120v-60zm640 0v-60h120v120h-120v-60zm160 0v-60h120v120h-120v-60zM260 1840v-60h120v120H260v-60zm160 0v-60h120v120H420v-60zm640 0v-60h120v120h-120v-60zm320 0v-60h120v120h-120v-60zm640 0v-60h120v120h-120v-60zm160 0v-60h120v120h-120v-60zM260 1680v-60h120v120H260v-60zm160 0v-60h120v120H420v-60zm640 0v-60h120v120h-120v-60zm320 0v-60h120v120h-120v-60zm640 0v-60h120v120h-120v-60zm160 0v-60h120v120h-120v-60zM260 1520v-60h120v120H260v-60zm160 0v-60h120v120H420v-60zm1600 0v-60h120v120h-120v-60zm160 0v-60h120v120h-120v-60zM260 1360v-60h120v120H260v-60zm160 0v-60h120v120H420v-60zm480 0v-60h120v120H900v-60zm160 0v-60h120v120h-120v-60zm320 0v-60h120v120h-120v-60zm160 0v-60h120v120h-120v-60zm480 0v-60h120v120h-120v-60zm160 0v-60h120v120h-120v-60zM260 1200v-60h120v120H260v-60zm160 0v-60h120v120H420v-60zm320 0v-60h120v120H740v-60zm160 0v-60h120v120H900v-60zm160 0v-60h120v120h-120v-60zm160 0v-60h120v120h-120v-60zm160 0v-60h120v120h-120v-60zm160 0v-60h120v120h-120v-60zm160 0v-60h120v120h-120v-60zm320 0v-60h120v120h-120v-60zm160 0v-60h120v120h-120v-60zM580 1040v-60h120v120H580v-60zm160 0v-60h120v120H740v-60zm160 0v-60h120v120H900v-60zm160 0v-60h120v120h-120v-60zm320 0v-60h120v120h-120v-60zm160 0v-60h120v120h-120v-60zm160 0v-60h120v120h-120v-60zm160 0v-60h120v120h-120v-60zM580 880v-60h120v120H580v-60zm160 0v-60h120v120H740v-60zm160 0v-60h120v120H900v-60zm640 0v-60h120v120h-120v-60zm160 0v-60h120v120h-120v-60zm160 0v-60h120v120h-120v-60zM580 720v-60h120v120H580v-60zm160 0v-60h120v120H740v-60zm960 0v-60h120v120h-120v-60zm160 0v-60h120v120h-120v-60zM580 560v-60h120v120H580v-60zm160 0v-60h120v120H740v-60zm160 0v-60h120v120H900v-60zm640 0v-60h120v120h-120v-60zm160 0v-60h120v120h-120v-60zm160 0v-60h120v120h-120v-60zM580 400v-60h120v120H580v-60zm160 0v-60h120v120H740v-60zm160 0v-60h120v120H900v-60zm160 0v-60h120v120h-120v-60zm320 0v-60h120v120h-120v-60zm160 0v-60h120v120h-120v-60zm160 0v-60h120v120h-120v-60zm160 0v-60h120v120h-120v-60zM740 240v-60h120v120H740v-60zm160 0v-60h120v120H900v-60zm160 0v-60h120v120h-120v-60zm320 0v-60h120v120h-120v-60zm160 0v-60h120v120h-120v-60zm160 0v-60h120v120h-120v-60zM900 80V20h120v120H900V80zm160 0V20h120v120h-120V80zm320 0V20h120v120h-120V80zm160 0V20h120v120h-120V80z" fill="#0068de"/>
  <path d="M0 1280V0h2560v2560H0V1280zm1180 1200v-60h-120v120h120v-60zm160 0v-60h-120v120h120v-60zm160 0v-60h-120v120h120v-60zm-320-160v-60h-120v120h120v-60zm160 0v-60h-120v120h120v-60zm160 0v-60h-120v120h120v-60zM380 2160v-60H260v120h120v-60zm160 0v-60H420v120h120v-60zm480 0v-60H900v120h120v-60zm160 0v-60h-120v120h120v-60zm160 0v-60h-120v120h120v-60zm160 0v-60h-120v120h120v-60zm160 0v-60h-120v120h120v-60zm480 0v-60h-120v120h120v-60zm160 0v-60h-120v120h120v-60zM380 2000v-60H260v120h120v-60zm160 0v-60H420v120h120v-60zm320 0v-60H740v120h120v-60zm160 0v-60H900v120h120v-60zm160 0v-60h-120v120h120v-60zm160 0v-60h-120v120h120v-60zm160 0v-60h-120v120h120v-60zm160 0v-60h-120v120h120v-60zm160 0v-60h-120v120h120v-60zm320 0v-60h-120v120h120v-60zm160 0v-60h-120v120h120v-60zM380 1840v-60H260v120h120v-60zm160 0v-60H420v120h120v-60zm160 0v-60H580v120h120v-60zm160 0v-60H740v120h120v-60zm160 0v-60H900v120h120v-60zm160 0v-60h-120v120h120v-60zm160 0v-60h-120v120h120v-60zm160 0v-60h-120v120h120v-60zm160 0v-60h-120v120h120v-60zm160 0v-60h-120v120h120v-60zm160 0v-60h-120v120h120v-60zm160 0v-60h-120v120h120v-60zm160 0v-60h-120v120h120v-60zM380 1680v-60H260v120h120v-60zm160 0v-60H420v120h120v-60zm160 0v-60H580v120h120v-60zm160 0v-60H740v120h120v-60zm320 0v-60h-120v120h120v-60zm160 0v-60h-120v120h120v-60zm160 0v-60h-120v120h120v-60zm320 0v-60h-120v120h120v-60zm160 0v-60h-120v120h120v-60zm160 0v-60h-120v120h120v-60zm160 0v-60h-120v120h120v-60zM380 1520v-60H260v120h120v-60zm160 0v-60H420v120h120v-60zm160 0v-60H580v120h120v-60zm640 0v-60h-120v120h120v-60zm640 0v-60h-120v120h120v-60zm160 0v-60h-120v120h120v-60zm160 0v-60h-120v120h120v-60zM380 1360v-60H260v120h120v-60zm160 0v-60H420v120h120v-60zm480 0v-60H900v120h120v-60zm160 0v-60h-120v120h120v-60zm160 0v-60h-120v120h120v-60zm160 0v-60h-120v120h120v-60zm160 0v-60h-120v120h120v-60zm480 0v-60h-120v120h120v-60zm160 0v-60h-120v120h120v-60zM380 1200v-60H260v120h120v-60zm160 0v-60H420v120h120v-60zm320 0v-60H740v120h120v-60zm160 0v-60H900v120h120v-60zm160 0v-60h-120v120h120v-60zm160 0v-60h-120v120h120v-60zm160 0v-60h-120v120h120v-60zm160 0v-60h-120v120h120v-60zm160 0v-60h-120v120h120v-60zm320 0v-60h-120v120h120v-60zm160 0v-60h-120v120h120v-60zM380 1040v-60H260v120h120v-60zm320 0v-60H580v120h120v-60zm160 0v-60H740v120h120v-60zm160 0v-60H900v120h120v-60zm160 0v-60h-120v120h120v-60zm160 0v-60h-120v120h120v-60zm160 0v-60h-120v120h120v-60zm160 0v-60h-120v120h120v-60zm160 0v-60h-120v120h120v-60zm160 0v-60h-120v120h120v-60zm320 0v-60h-120v120h120v-60zM700 880v-60H580v120h120v-60zm160 0v-60H740v120h120v-60zm160 0v-60H900v120h120v-60zm160 0v-60h-120v120h120v-60zm160 0v-60h-120v120h120v-60zm160 0v-60h-120v120h120v-60zm160 0v-60h-120v120h120v-60zm160 0v-60h-120v120h120v-60zm160 0v-60h-120v120h120v-60zM700 720v-60H580v120h120v-60zm160 0v-60H740v120h120v-60zm160 0v-60H900v120h120v-60zm160 0v-60h-120v120h120v-60zm160 0v-60h-120v120h120v-60zm160 0v-60h-120v120h120v-60zm160 0v-60h-120v120h120v-60zm160 0v-60h-120v120h120v-60zm160 0v-60h-120v120h120v-60zM700 560v-60H580v120h120v-60zm160 0v-60H740v120h120v-60zm160 0v-60H900v120h120v-60zm160 0v-60h-120v120h120v-60zm160 0v-60h-120v120h120v-60zm160 0v-60h-120v120h120v-60zm160 0v-60h-120v120h120v-60zm160 0v-60h-120v120h120v-60zm160 0v-60h-120v120h120v-60zM700 400v-60H580v120h120v-60zm160 0v-60H740v120h120v-60zm160 0v-60H900v120h120v-60zm160 0v-60h-120v120h120v-60zm160 0v-60h-120v120h120v-60zm160 0v-60h-120v120h120v-60zm160 0v-60h-120v120h120v-60zm160 0v-60h-120v120h120v-60zm160 0v-60h-120v120h120v-60zM860 240v-60H740v120h120v-60zm160 0v-60H900v120h120v-60zm160 0v-60h-120v120h120v-60zm160 0v-60h-120v120h120v-60zm160 0v-60h-120v120h120v-60zm160 0v-60h-120v120h120v-60zm160 0v-60h-120v120h120v-60zM1020 80V20H900v120h120V80zm160 0V20h-120v120h120V80zm160 0V20h-120v120h120V80zm160 0V20h-120v120h120V80zm160 0V20h-120v120h120V80z"/>
</svg>
