<svg version="1" xmlns="http://www.w3.org/2000/svg" width="256" height="256" viewBox="0 0 2560 2560">
  <path d="M1220 1200v-60h120v120h-120v-60zm-480-160v-60h120v120H740v-60zm160 0v-60h120v120H900v-60zm320 0v-60h120v120h-120v-60zm320 0v-60h120v120h-120v-60zm160 0v-60h120v120h-120v-60zM900 880v-60h120v120H900v-60zm160 0v-60h120v120h-120v-60zm160 0v-60h120v120h-120v-60zm160 0v-60h120v120h-120v-60zm160 0v-60h120v120h-120v-60zm-480-160v-60h120v120h-120v-60zm160 0v-60h120v120h-120v-60zm160 0v-60h120v120h-120v-60zm-160-160v-60h120v120h-120v-60z" fill="#de4700"/>
  <path d="M900 1840v-60h120v120H900v-60zm640 0v-60h120v120h-120v-60zm-800-160v-60h120v120H740v-60zm160 0v-60h120v120H900v-60zm640 0v-60h120v120h-120v-60zm160 0v-60h120v120h-120v-60zM580 1520v-60h120v120H580v-60zm160 0v-60h120v120H740v-60zm960 0v-60h120v120h-120v-60zm160 0v-60h120v120h-120v-60zM420 1360v-60h120v120H420v-60zm160 0v-60h120v120H580v-60zm1280 0v-60h120v120h-120v-60zm160 0v-60h120v120h-120v-60zM420 1200v-60h120v120H420v-60zm1600 0v-60h120v120h-120v-60zM420 1040v-60h120v120H420v-60zm1600 0v-60h120v120h-120v-60zM420 880v-60h120v120H420v-60zm1600 0v-60h120v120h-120v-60zM420 720v-60h120v120H420v-60zm1600 0v-60h120v120h-120v-60z" fill="#0000de"/>
  <path d="M1220 2160v-60h120v120h-120v-60zm0-160v-60h120v120h-120v-60zm0-160v-60h120v120h-120v-60zm0-160v-60h120v120h-120v-60zm-320-160v-60h120v120H900v-60zm320 0v-60h120v120h-120v-60zm320 0v-60h120v120h-120v-60zm-800-160v-60h120v120H740v-60zm160 0v-60h120v120H900v-60zm160 0v-60h120v120h-120v-60zm160 0v-60h120v120h-120v-60zm160 0v-60h120v120h-120v-60zm160 0v-60h120v120h-120v-60zm160 0v-60h120v120h-120v-60zM580 1200v-60h120v120H580v-60zm160 0v-60h120v120H740v-60zm160 0v-60h120v120H900v-60zm160 0v-60h120v120h-120v-60zm320 0v-60h120v120h-120v-60zm160 0v-60h120v120h-120v-60zm160 0v-60h120v120h-120v-60zm160 0v-60h120v120h-120v-60zM580 1040v-60h120v120H580v-60zm480 0v-60h120v120h-120v-60zm320 0v-60h120v120h-120v-60zm480 0v-60h120v120h-120v-60z" fill="#ff0"/>
  <path d="M0 1280V0h2560v2560H0V1280zm1340 880v-60h-120v120h120v-60zm0-160v-60h-120v120h120v-60zm-320-160v-60H900v120h120v-60zm320 0v-60h-120v120h120v-60zm320 0v-60h-120v120h120v-60zm-800-160v-60H740v120h120v-60zm160 0v-60H900v120h120v-60zm320 0v-60h-120v120h120v-60zm320 0v-60h-120v120h120v-60zm160 0v-60h-120v120h120v-60zM700 1520v-60H580v120h120v-60zm160 0v-60H740v120h120v-60zm160 0v-60H900v120h120v-60zm320 0v-60h-120v120h120v-60zm320 0v-60h-120v120h120v-60zm160 0v-60h-120v120h120v-60zm160 0v-60h-120v120h120v-60zM540 1360v-60H420v120h120v-60zm160 0v-60H580v120h120v-60zm160 0v-60H740v120h120v-60zm160 0v-60H900v120h120v-60zm160 0v-60h-120v120h120v-60zm160 0v-60h-120v120h120v-60zm160 0v-60h-120v120h120v-60zm160 0v-60h-120v120h120v-60zm160 0v-60h-120v120h120v-60zm160 0v-60h-120v120h120v-60zm160 0v-60h-120v120h120v-60zM540 1200v-60H420v120h120v-60zm160 0v-60H580v120h120v-60zm160 0v-60H740v120h120v-60zm160 0v-60H900v120h120v-60zm160 0v-60h-120v120h120v-60zm160 0v-60h-120v120h120v-60zm160 0v-60h-120v120h120v-60zm160 0v-60h-120v120h120v-60zm160 0v-60h-120v120h120v-60zm160 0v-60h-120v120h120v-60zm160 0v-60h-120v120h120v-60zM540 1040v-60H420v120h120v-60zm160 0v-60H580v120h120v-60zm160 0v-60H740v120h120v-60zm160 0v-60H900v120h120v-60zm160 0v-60h-120v120h120v-60zm160 0v-60h-120v120h120v-60zm160 0v-60h-120v120h120v-60zm160 0v-60h-120v120h120v-60zm160 0v-60h-120v120h120v-60zm160 0v-60h-120v120h120v-60zm160 0v-60h-120v120h120v-60zM540 880v-60H420v120h120v-60zm480 0v-60H900v120h120v-60zm160 0v-60h-120v120h120v-60zm160 0v-60h-120v120h120v-60zm160 0v-60h-120v120h120v-60zm160 0v-60h-120v120h120v-60zm480 0v-60h-120v120h120v-60zM540 720v-60H420v120h120v-60zm640 0v-60h-120v120h120v-60zm160 0v-60h-120v120h120v-60zm160 0v-60h-120v120h120v-60zm640 0v-60h-120v120h120v-60zm-800-160v-60h-120v120h120v-60z"/>
</svg>
