<svg version="1" xmlns="http://www.w3.org/2000/svg" width="256" height="256" viewBox="0 0 2560 2560"><path d="M580 1520v-60h120v120H580v-60zm1280 0v-60h120v120h-120v-60zM740 1360v-60h120v120H740v-60zm960 0v-60h120v120h-120v-60z" fill="#0068de"/><path d="M740 2320v-60h120v120H740v-60zm160 0v-60h120v120H900v-60zm640 0v-60h120v120h-120v-60zm160 0v-60h120v120h-120v-60zm-960-160v-60h120v120H740v-60zm160 0v-60h120v120H900v-60zm640 0v-60h120v120h-120v-60zm160 0v-60h120v120h-120v-60zm-800-160v-60h120v120H900v-60zm640 0v-60h120v120h-120v-60zm-480-320v-60h120v120h-120v-60zm320 0v-60h120v120h-120v-60zM100 1520v-60h120v120H100v-60zm960 0v-60h120v120h-120v-60zm160 0v-60h120v120h-120v-60zm160 0v-60h120v120h-120v-60zm960 0v-60h120v120h-120v-60zM100 1360v-60h120v120H100v-60zm1120 0v-60h120v120h-120v-60zm1120 0v-60h120v120h-120v-60zM580 1040v-60h120v120H580v-60zm1280 0v-60h120v120h-120v-60zM580 880v-60h120v120H580v-60zm1280 0v-60h120v120h-120v-60z" fill="red"/><path d="M100 2480v-60h120v120H100v-60zm1120 0v-60h120v120h-120v-60zm1120 0v-60h120v120h-120v-60zM100 2320v-60h120v120H100v-60zm160 0v-60h120v120H260v-60zm960 0v-60h120v120h-120v-60zm960 0v-60h120v120h-120v-60zm160 0v-60h120v120h-120v-60zM100 2160v-60h120v120H100v-60zm160 0v-60h120v120H260v-60zm160 0v-60h120v120H420v-60zm640 0v-60h120v120h-120v-60zm160 0v-60h120v120h-120v-60zm160 0v-60h120v120h-120v-60zm640 0v-60h120v120h-120v-60zm160 0v-60h120v120h-120v-60zm160 0v-60h120v120h-120v-60zM100 2000v-60h120v120H100v-60zm160 0v-60h120v120H260v-60zm160 0v-60h120v120H420v-60zm160 0v-60h120v120H580v-60zm160 0v-60h120v120H740v-60zm320 0v-60h120v120h-120v-60zm160 0v-60h120v120h-120v-60zm160 0v-60h120v120h-120v-60zm320 0v-60h120v120h-120v-60zm160 0v-60h120v120h-120v-60zm160 0v-60h120v120h-120v-60zm160 0v-60h120v120h-120v-60zm160 0v-60h120v120h-120v-60zM100 1840v-60h120v120H100v-60zm320 0v-60h120v120H420v-60zm160 0v-60h120v120H580v-60zm160 0v-60h120v120H740v-60zm160 0v-60h120v120H900v-60zm160 0v-60h120v120h-120v-60zm160 0v-60h120v120h-120v-60zm160 0v-60h120v120h-120v-60zm160 0v-60h120v120h-120v-60zm160 0v-60h120v120h-120v-60zm160 0v-60h120v120h-120v-60zm160 0v-60h120v120h-120v-60zm320 0v-60h120v120h-120v-60zM100 1680v-60h120v120H100v-60zm480 0v-60h120v120H580v-60zm160 0v-60h120v120H740v-60zm160 0v-60h120v120H900v-60zm320 0v-60h120v120h-120v-60zm320 0v-60h120v120h-120v-60zm160 0v-60h120v120h-120v-60zm160 0v-60h120v120h-120v-60zm480 0v-60h120v120h-120v-60zM740 1520v-60h120v120H740v-60zm160 0v-60h120v120H900v-60zm640 0v-60h120v120h-120v-60zm160 0v-60h120v120h-120v-60zM580 1360v-60h120v120H580v-60zm320 0v-60h120v120H900v-60zm160 0v-60h120v120h-120v-60zm320 0v-60h120v120h-120v-60zm160 0v-60h120v120h-120v-60zm320 0v-60h120v120h-120v-60zM580 1200v-60h120v120H580v-60zm320 0v-60h120v120H900v-60zm160 0v-60h120v120h-120v-60zm160 0v-60h120v120h-120v-60zm160 0v-60h120v120h-120v-60zm160 0v-60h120v120h-120v-60zm320 0v-60h120v120h-120v-60zm-800-160v-60h120v120h-120v-60zm160 0v-60h120v120h-120v-60zm160 0v-60h120v120h-120v-60zm-320-160v-60h120v120h-120v-60zm160 0v-60h120v120h-120v-60zm160 0v-60h120v120h-120v-60zm-320-160v-60h120v120h-120v-60zm160 0v-60h120v120h-120v-60zm160 0v-60h120v120h-120v-60zm-320-160v-60h120v120h-120v-60zm160 0v-60h120v120h-120v-60zm160 0v-60h120v120h-120v-60zm-160-160v-60h120v120h-120v-60zm0-160v-60h120v120h-120v-60zm0-160V20h120v120h-120V80z" fill="#dedede"/></svg>