<svg version="1" xmlns="http://www.w3.org/2000/svg" width="256" height="256" viewBox="0 0 2560 2560">
  <path d="M100 2480v-60h120v120H100v-60zm160-160v-60h120v120H260v-60zm320 0v-60h120v120H580v-60zm-160-160v-60h120v120H420v-60zm-160-160v-60h120v120H260v-60zm320 0v-60h120v120H580v-60zm160-160v-60h120v120H740v-60zm160-160v-60h120v120H900v-60zm0-160v-60h120v120H900v-60zm320-320v-60h120v120h-120v-60zm-160-160v-60h120v120h-120v-60zm160 0v-60h120v120h-120v-60zm160 0v-60h120v120h-120v-60zm-160-160v-60h120v120h-120v-60zm160 0v-60h120v120h-120v-60zm0-160v-60h120v120h-120v-60zm160 0v-60h120v120h-120v-60zm160-160v-60h120v120h-120v-60zm160-160v-60h120v120h-120v-60z" fill="#0068de"/>
  <path d="M1060 1680v-60h120v120h-120v-60zm160 0v-60h120v120h-120v-60zm-160-160v-60h120v120h-120v-60zm160-160v-60h120v120h-120v-60zm160 0v-60h120v120h-120v-60zm160 0v-60h120v120h-120v-60zm160 0v-60h120v120h-120v-60zm-320-160v-60h120v120h-120v-60zm160 0v-60h120v120h-120v-60zm160 0v-60h120v120h-120v-60zm-160-160v-60h120v120h-120v-60zm160 0v-60h120v120h-120v-60zm-160-160v-60h120v120h-120v-60zm160 0v-60h120v120h-120v-60zm160 0v-60h120v120h-120v-60zm-160-160v-60h120v120h-120v-60zm160 0v-60h120v120h-120v-60zm0-160v-60h120v120h-120v-60zm160 0v-60h120v120h-120v-60zm0-160v-60h120v120h-120v-60z" fill="#dedede"/>
  <path d="M1860 2480v-60h120v120h-120v-60zm160 0v-60h120v120h-120v-60zm-480-160v-60h120v120h-120v-60zm160 0v-60h120v120h-120v-60zm160 0v-60h120v120h-120v-60zm160 0v-60h120v120h-120v-60zm-480-160v-60h120v120h-120v-60zm160 0v-60h120v120h-120v-60zm160 0v-60h120v120h-120v-60zm-480-160v-60h120v120h-120v-60zm160 0v-60h120v120h-120v-60zm160 0v-60h120v120h-120v-60zm160 0v-60h120v120h-120v-60zm-480-160v-60h120v120h-120v-60zm160 0v-60h120v120h-120v-60zm160 0v-60h120v120h-120v-60zm-320-160v-60h120v120h-120v-60zm160 0v-60h120v120h-120v-60zm160 0v-60h120v120h-120v-60zm-480-160v-60h120v120h-120v-60zm160 0v-60h120v120h-120v-60zm160 0v-60h120v120h-120v-60zm480 0v-60h120v120h-120v-60zm160 0v-60h120v120h-120v-60zm160 0v-60h120v120h-120v-60zM900 1360v-60h120v120H900v-60zm160 0v-60h120v120h-120v-60zm800 0v-60h120v120h-120v-60zm160 0v-60h120v120h-120v-60zm160 0v-60h120v120h-120v-60zm160 0v-60h120v120h-120v-60zM420 1200v-60h120v120H420v-60zm160 0v-60h120v120H580v-60zm160 0v-60h120v120H740v-60zm160 0v-60h120v120H900v-60zm160 0v-60h120v120h-120v-60zm800 0v-60h120v120h-120v-60zm160 0v-60h120v120h-120v-60zM260 1040v-60h120v120H260v-60zm160 0v-60h120v120H420v-60zm160 0v-60h120v120H580v-60zm160 0v-60h120v120H740v-60zm160 0v-60h120v120H900v-60zM100 880v-60h120v120H100v-60zm160 0v-60h120v120H260v-60zm160 0v-60h120v120H420v-60zm160 0v-60h120v120H580v-60zm480 0v-60h120v120h-120v-60zM900 720v-60h120v120H900v-60zm160 0v-60h120v120h-120v-60zm160 0v-60h120v120h-120v-60zM900 560v-60h120v120H900v-60zm160 0v-60h120v120h-120v-60zm160 0v-60h120v120h-120v-60zM900 400v-60h120v120H900v-60zm160 0v-60h120v120h-120v-60zM740 240v-60h120v120H740v-60zm160 0v-60h120v120H900v-60z" fill="red"/>
  <path d="M0 1280V0h2560v2560H0V1280zm220 1200v-60H100v120h120v-60zm1760 0v-60h-120v120h120v-60zm160 0v-60h-120v120h120v-60zM380 2320v-60H260v120h120v-60zm320 0v-60H580v120h120v-60zm960 0v-60h-120v120h120v-60zm160 0v-60h-120v120h120v-60zm160 0v-60h-120v120h120v-60zm160 0v-60h-120v120h120v-60zM540 2160v-60H420v120h120v-60zm1120 0v-60h-120v120h120v-60zm160 0v-60h-120v120h120v-60zm160 0v-60h-120v120h120v-60zM380 2000v-60H260v120h120v-60zm320 0v-60H580v120h120v-60zm800 0v-60h-120v120h120v-60zm160 0v-60h-120v120h120v-60zm160 0v-60h-120v120h120v-60zm160 0v-60h-120v120h120v-60zM860 1840v-60H740v120h120v-60zm640 0v-60h-120v120h120v-60zm160 0v-60h-120v120h120v-60zm160 0v-60h-120v120h120v-60zm-800-160v-60H900v120h120v-60zm160 0v-60h-120v120h120v-60zm160 0v-60h-120v120h120v-60zm160 0v-60h-120v120h120v-60zm160 0v-60h-120v120h120v-60zm160 0v-60h-120v120h120v-60zm-800-160v-60H900v120h120v-60zm160 0v-60h-120v120h120v-60zm160 0v-60h-120v120h120v-60zm160 0v-60h-120v120h120v-60zm160 0v-60h-120v120h120v-60zm480 0v-60h-120v120h120v-60zm160 0v-60h-120v120h120v-60zm160 0v-60h-120v120h120v-60zm-1440-160v-60H900v120h120v-60zm160 0v-60h-120v120h120v-60zm160 0v-60h-120v120h120v-60zm160 0v-60h-120v120h120v-60zm160 0v-60h-120v120h120v-60zm160 0v-60h-120v120h120v-60zm160 0v-60h-120v120h120v-60zm160 0v-60h-120v120h120v-60zm160 0v-60h-120v120h120v-60zm160 0v-60h-120v120h120v-60zM540 1200v-60H420v120h120v-60zm160 0v-60H580v120h120v-60zm160 0v-60H740v120h120v-60zm160 0v-60H900v120h120v-60zm160 0v-60h-120v120h120v-60zm160 0v-60h-120v120h120v-60zm160 0v-60h-120v120h120v-60zm160 0v-60h-120v120h120v-60zm160 0v-60h-120v120h120v-60zm160 0v-60h-120v120h120v-60zm160 0v-60h-120v120h120v-60zM380 1040v-60H260v120h120v-60zm160 0v-60H420v120h120v-60zm160 0v-60H580v120h120v-60zm160 0v-60H740v120h120v-60zm160 0v-60H900v120h120v-60zm160 0v-60h-120v120h120v-60zm160 0v-60h-120v120h120v-60zm160 0v-60h-120v120h120v-60zm160 0v-60h-120v120h120v-60zm160 0v-60h-120v120h120v-60zM220 880v-60H100v120h120v-60zm160 0v-60H260v120h120v-60zm160 0v-60H420v120h120v-60zm160 0v-60H580v120h120v-60zm480 0v-60h-120v120h120v-60zm160 0v-60h-120v120h120v-60zm160 0v-60h-120v120h120v-60zm160 0v-60h-120v120h120v-60zm160 0v-60h-120v120h120v-60zm160 0v-60h-120v120h120v-60zm-960-160v-60H900v120h120v-60zm160 0v-60h-120v120h120v-60zm160 0v-60h-120v120h120v-60zm160 0v-60h-120v120h120v-60zm160 0v-60h-120v120h120v-60zm160 0v-60h-120v120h120v-60zm160 0v-60h-120v120h120v-60zm-960-160v-60H900v120h120v-60zm160 0v-60h-120v120h120v-60zm160 0v-60h-120v120h120v-60zm480 0v-60h-120v120h120v-60zm160 0v-60h-120v120h120v-60zm160 0v-60h-120v120h120v-60zM1020 400v-60H900v120h120v-60zm160 0v-60h-120v120h120v-60zm800 0v-60h-120v120h120v-60zm160 0v-60h-120v120h120v-60zM860 240v-60H740v120h120v-60zm160 0v-60H900v120h120v-60z"/>
</svg>
