<svg version="1" xmlns="http://www.w3.org/2000/svg" width="256" height="256" viewBox="0 0 2560 2560">
  <path d="M1060 720v-60h120v120h-120v-60zm320 0v-60h120v120h-120v-60zm-320-160v-60h120v120h-120v-60zm320 0v-60h120v120h-120v-60z" fill="red"/>
  <path d="M740 1360v-60h120v120H740v-60zm160 0v-60h120v120H900v-60zm640 0v-60h120v120h-120v-60zm160 0v-60h120v120h-120v-60zM580 1200v-60h120v120H580v-60zm160 0v-60h120v120H740v-60zm960 0v-60h120v120h-120v-60zm160 0v-60h120v120h-120v-60zM580 1040v-60h120v120H580v-60zm160 0v-60h120v120H740v-60zm960 0v-60h120v120h-120v-60zm160 0v-60h120v120h-120v-60zM420 880v-60h120v120H420v-60zm160 0v-60h120v120H580v-60zm160 0v-60h120v120H740v-60zm960 0v-60h120v120h-120v-60zm160 0v-60h120v120h-120v-60zm160 0v-60h120v120h-120v-60zM420 720v-60h120v120H420v-60zm320 0v-60h120v120H740v-60zm960 0v-60h120v120h-120v-60zm320 0v-60h120v120h-120v-60z" fill="#00ffde"/>
  <path d="M900 2160v-60h120v120H900v-60zm160 0v-60h120v120h-120v-60zm-320-160v-60h120v120H740v-60zm480 0v-60h120v120h-120v-60zm-640-160v-60h120v120H580v-60zm640 0v-60h120v120h-120v-60zm-160-160v-60h120v120h-120v-60zm160 0v-60h120v120h-120v-60zm160 0v-60h120v120h-120v-60zm-320-160v-60h120v120h-120v-60zm160 0v-60h120v120h-120v-60zm160 0v-60h120v120h-120v-60zm-320-160v-60h120v120h-120v-60zm160 0v-60h120v120h-120v-60zm160 0v-60h120v120h-120v-60zm-320-160v-60h120v120h-120v-60zm160 0v-60h120v120h-120v-60zm160 0v-60h120v120h-120v-60zm-320-160v-60h120v120h-120v-60zm160 0v-60h120v120h-120v-60zm160 0v-60h120v120h-120v-60zm-160-160v-60h120v120h-120v-60z" fill="#ffb800"/>
  <path d="M0 1280V0h2560v2560H0V1280zm1020 880v-60H900v120h120v-60zm160 0v-60h-120v120h120v-60zm-320-160v-60H740v120h120v-60zm480 0v-60h-120v120h120v-60zm-640-160v-60H580v120h120v-60zm640 0v-60h-120v120h120v-60zm-160-160v-60h-120v120h120v-60zm160 0v-60h-120v120h120v-60zm160 0v-60h-120v120h120v-60zm-320-160v-60h-120v120h120v-60zm160 0v-60h-120v120h120v-60zm160 0v-60h-120v120h120v-60zm-640-160v-60H740v120h120v-60zm160 0v-60H900v120h120v-60zm160 0v-60h-120v120h120v-60zm160 0v-60h-120v120h120v-60zm160 0v-60h-120v120h120v-60zm160 0v-60h-120v120h120v-60zm160 0v-60h-120v120h120v-60zM700 1200v-60H580v120h120v-60zm160 0v-60H740v120h120v-60zm320 0v-60h-120v120h120v-60zm160 0v-60h-120v120h120v-60zm160 0v-60h-120v120h120v-60zm320 0v-60h-120v120h120v-60zm160 0v-60h-120v120h120v-60zM700 1040v-60H580v120h120v-60zm160 0v-60H740v120h120v-60zm320 0v-60h-120v120h120v-60zm160 0v-60h-120v120h120v-60zm160 0v-60h-120v120h120v-60zm320 0v-60h-120v120h120v-60zm160 0v-60h-120v120h120v-60zM540 880v-60H420v120h120v-60zm160 0v-60H580v120h120v-60zm160 0v-60H740v120h120v-60zm480 0v-60h-120v120h120v-60zm480 0v-60h-120v120h120v-60zm160 0v-60h-120v120h120v-60zm160 0v-60h-120v120h120v-60zM540 720v-60H420v120h120v-60zm320 0v-60H740v120h120v-60zm320 0v-60h-120v120h120v-60zm320 0v-60h-120v120h120v-60zm320 0v-60h-120v120h120v-60zm320 0v-60h-120v120h120v-60zm-960-160v-60h-120v120h120v-60zm320 0v-60h-120v120h120v-60z"/>
</svg>
